<?xml version="1.0" encoding="UTF-8"?>
<svg width="309" height="372" viewBox="0 0 309 372" fill="none" xmlns="http://www.w3.org/2000/svg">
<path fill-rule="evenodd" clip-rule="evenodd" d="M117 101L223 145L147 206L117 101Z" fill="#4A4A4A"/>
<path fill-rule="evenodd" clip-rule="evenodd" d="M107 290H208L130 362L107 290Z" fill="#4A4A4A"/>
<path fill-rule="evenodd" clip-rule="evenodd" d="M107 353L125 345L130 362L107 353Z" fill="#4A4A4A" fill-opacity="0.85"/>
<path fill-rule="evenodd" clip-rule="evenodd" d="M130 362L169 326L156 372L130 362Z" fill="#4A4A4A" fill-opacity="0.85"/>
<path fill-rule="evenodd" clip-rule="evenodd" d="M107 290V353L125 345L107 290Z" fill="#4A4A4A" fill-opacity="0.75"/>
<path fill-rule="evenodd" clip-rule="evenodd" d="M169 326L156 372L208 352L169 326Z" fill="#4A4A4A" fill-opacity="0.9"/>
<path fill-rule="evenodd" clip-rule="evenodd" d="M208 352L154 316L208 290V352Z" fill="#4A4A4A" fill-opacity="0.75"/>
<path fill-rule="evenodd" clip-rule="evenodd" d="M196 27L258 89L223 145L196 27Z" fill="#4A4A4A"/>
<path fill-rule="evenodd" clip-rule="evenodd" d="M107 290L217 258L208 290H107Z" fill="#4A4A4A"/>
<path fill-rule="evenodd" clip-rule="evenodd" d="M90 258L147 206L107 290L90 258Z" fill="#4A4A4A"/>
<path fill-rule="evenodd" clip-rule="evenodd" d="M49 89L117 26V101L49 89Z" fill="#4A4A4A"/>
<path fill-rule="evenodd" clip-rule="evenodd" d="M147 206L217 258L223 145L147 206Z" fill="#4A4A4A" fill-opacity="0.25"/>
<path fill-rule="evenodd" clip-rule="evenodd" d="M147 206L48.9997 189L89.9997 258L147 206Z" fill="#4A4A4A" fill-opacity="0.25"/>
<path fill-rule="evenodd" clip-rule="evenodd" d="M117 101L196 27L223 145L117 101Z" fill="#4A4A4A" fill-opacity="0.75"/>
<path fill-rule="evenodd" clip-rule="evenodd" d="M49 189L117 101L147 206L49 189Z" fill="#4A4A4A" fill-opacity="0.4"/>
<path fill-rule="evenodd" clip-rule="evenodd" d="M107 290L147 206L217 258L107 290Z" fill="#4A4A4A" fill-opacity="0.75"/>
<path fill-rule="evenodd" clip-rule="evenodd" d="M217 258L223 145L262 189L217 258Z" fill="#4A4A4A" fill-opacity="0.75"/>
<path fill-rule="evenodd" clip-rule="evenodd" d="M48.9996 189L48.9996 88.9999L117 101L48.9996 189Z" fill="#4A4A4A" fill-opacity="0.75"/>
<path fill-rule="evenodd" clip-rule="evenodd" d="M223 145L258 89L262 189L223 145Z" fill="#4A4A4A" fill-opacity="0.6"/>
<path fill-rule="evenodd" clip-rule="evenodd" d="M196 27.0001L117 101L117 26.0001L196 27.0001Z" fill="#4A4A4A" fill-opacity="0.3"/>
</svg>
